<svg width="60" height="60" viewBox="0 0 60 60" fill="none" xmlns="http://www.w3.org/2000/svg">
<path d="M30 55C43.8071 55 55 43.8071 55 30C55 16.1929 43.8071 5 30 5C16.1929 5 5 16.1929 5 30C5 43.8071 16.1929 55 30 55Z" stroke="#0066FF" stroke-width="2" stroke-linejoin="round"/>
<path d="M5.5 25C7.81635 36.4113 17.9052 45 30 45C42.0947 45 52.1835 36.4113 54.4998 25" stroke="#0066FF" stroke-width="2" stroke-linecap="round" stroke-linejoin="round"/>
<path d="M7.08032 20C10.9381 28.8295 19.7485 35 30.0001 35C40.2517 35 49.0621 28.8295 52.9198 20" stroke="#0066FF" stroke-width="2" stroke-linecap="round" stroke-linejoin="round"/>
<path d="M9.99829 15C14.5594 21.0723 21.821 25 30.0001 25C38.1792 25 45.4409 21.0723 50.0189 15" stroke="#0066FF" stroke-width="2" stroke-linecap="round" stroke-linejoin="round"/>
<path d="M14.9976 10C19.1763 13.1395 24.3709 15 30.0001 15C35.6292 15 40.8238 13.1395 45.0024 10" stroke="#0066FF" stroke-width="2" stroke-linecap="round" stroke-linejoin="round"/>
</svg>
